<?xml version="1.0" standalone="no"?>
<!DOCTYPE svg PUBLIC "-//W3C//DTD SVG 20010904//EN"
 "http://www.w3.org/TR/2001/REC-SVG-20010904/DTD/svg10.dtd">
<svg version="1.0" xmlns="http://www.w3.org/2000/svg"
 width="700.000000pt" height="700.000000pt" viewBox="0 0 700.000000 700.000000"
 preserveAspectRatio="xMidYMid meet">
<metadata>
Created by potrace 1.14, written by Peter Selinger 2001-2017
</metadata>
<g transform="translate(0.000000,700.000000) scale(0.100000,-0.100000)"
fill="#000000" stroke="none">
<path d="M544 6985 c-142 -31 -254 -95 -357 -205 -76 -80 -126 -165 -159 -270
l-23 -75 0 -2940 0 -2940 27 -78 c72 -212 232 -373 443 -445 l80 -27 2940 0
2940 0 75 23 c115 36 195 86 286 176 90 91 140 171 176 286 l23 75 0 2940 0
2940 -28 80 c-42 119 -81 181 -171 271 -90 90 -152 129 -271 171 l-80 28
-2920 2 c-2408 1 -2931 -1 -2981 -12z m3639 -1190 c38 -8 92 -27 120 -42 29
-16 278 -209 553 -430 525 -421 551 -446 590 -553 34 -95 13 -255 -44 -328
-17 -22 -18 -22 -262 -20 l-244 3 92 100 c68 74 92 107 92 127 0 23 -31 52
-217 202 -205 165 -219 175 -234 158 -9 -9 -130 -146 -268 -304 l-253 -288
-239 0 c-131 0 -239 2 -239 5 0 4 163 191 362 417 261 297 359 414 352 424
-20 29 -238 194 -256 194 -11 0 -27 -4 -36 -9 -9 -5 -215 -239 -457 -520
l-440 -510 -243 -1 -244 0 24 28 c184 218 1055 1217 1086 1244 54 48 130 87
206 103 80 18 117 18 199 0z m-1373 -915 c0 -5 -65 -84 -145 -175 l-146 -165
-407 0 c-249 0 -421 -4 -444 -10 -77 -22 -128 -87 -128 -165 0 -80 50 -141
135 -164 28 -8 543 -11 1743 -11 1873 0 1766 3 1932 -61 176 -68 336 -211 415
-373 84 -171 80 -113 80 -1061 0 -943 3 -900 -75 -1060 -114 -234 -357 -399
-640 -434 -117 -15 -3143 -15 -3260 0 -288 35 -541 212 -651 455 -67 147 -63
64 -64 1484 0 1466 -6 1357 87 1496 92 138 243 225 421 244 110 11 1147 12
1147 0z"/>
<path d="M4445 2795 c-83 -30 -135 -122 -114 -200 15 -53 74 -110 128 -125 28
-7 135 -10 329 -8 285 3 287 3 332 28 54 30 90 88 90 145 0 57 -36 115 -90
145 -45 25 -46 25 -340 27 -236 2 -303 0 -335 -12z"/>
</g>
</svg>
